<svg width="25" height="25" viewBox="0 0 25 25" fill="none" xmlns="http://www.w3.org/2000/svg">
<g clip-path="url(#clip0_40_10)">
<path d="M24.5264 11.3821L13.6084 0.473877C12.9834 -0.156006 11.9629 -0.156006 11.3281 0.473877L9.06738 2.7395L11.9434 5.6106C12.6123 5.38599 13.3789 5.53735 13.9111 6.06958C14.4482 6.60669 14.5996 7.37817 14.3701 8.04712L17.1387 10.8157C17.8076 10.5813 18.584 10.7327 19.1162 11.2698C19.8682 12.0168 19.8682 13.2278 19.1162 13.9797C18.3691 14.7268 17.1582 14.7268 16.4111 13.9797C15.8496 13.4182 15.708 12.5881 15.9863 11.8997L13.3936 9.32642V16.1233C13.5742 16.2112 13.75 16.3333 13.9014 16.4846C14.6436 17.2366 14.6436 18.4426 13.9014 19.1946C13.1543 19.9417 11.9336 19.9417 11.1816 19.1946C10.4346 18.4475 10.4346 17.2366 11.1816 16.4846C11.3721 16.2991 11.5869 16.1575 11.8115 16.0647V9.20435C11.5869 9.10669 11.3721 8.96997 11.1865 8.78442C10.6201 8.21802 10.4834 7.38794 10.7764 6.69458L7.9541 3.85767L0.46875 11.3381C-0.15625 11.9631 -0.15625 12.9836 0.46875 13.6184L11.3818 24.5315C12.0117 25.1614 13.0273 25.1614 13.6621 24.5315L24.5264 13.6672C25.1563 13.0374 25.1563 12.0168 24.5264 11.3821Z" fill="#5E5A57"/>
</g>
<defs>
<clipPath id="clip0_40_10">
<rect width="25" height="25" fill="white"/>
</clipPath>
</defs>
</svg>
