<svg width="25" height="25" viewBox="0 0 25 25" fill="none" xmlns="http://www.w3.org/2000/svg">
<g clip-path="url(#clip0_40_20)">
<path fill-rule="evenodd" clip-rule="evenodd" d="M12.5391 0.288086C5.60059 0.288086 0 5.88867 0 12.8271C0 18.3447 3.59375 23.0273 8.61328 24.6973C9.28223 24.7803 9.44824 24.4482 9.44824 24.1113V21.9385C5.9375 22.6904 5.18555 20.2686 5.18555 20.2686C4.59961 18.8477 3.76465 18.4277 3.76465 18.4277C2.59277 17.6758 3.84766 17.6758 3.84766 17.6758C5.10254 17.7588 5.77148 18.9307 5.77148 18.9307C6.86035 20.8545 8.69629 20.2686 9.44824 19.9365C9.53125 19.1016 9.86816 18.5986 10.2832 18.2666C7.52441 17.9346 4.59961 16.8457 4.59961 12.0801C4.59961 10.7422 5.10254 9.57031 5.85449 8.73535C5.68848 8.39844 5.26855 7.14844 5.9375 5.39062C5.9375 5.39062 7.02637 5.05371 9.36523 6.64551C10.3662 6.39648 11.4551 6.22559 12.5439 6.22559C13.6328 6.22559 14.7168 6.3916 15.7227 6.64551C18.1494 5.05859 19.1504 5.39062 19.1504 5.39062C19.8193 7.14844 19.3994 8.39844 19.2334 8.73535C20.0684 9.57031 20.4883 10.7422 20.4883 12.0801C20.4883 16.9287 17.5635 17.9346 14.8047 18.2666C15.2246 18.6865 15.6396 19.4385 15.6396 20.6055V24.0332C15.6396 24.3652 15.8887 24.7852 16.4746 24.6191C21.4893 22.9443 25 18.2617 25 12.7441C25.083 5.88867 19.4824 0.288086 12.5391 0.288086Z" fill="#5E5A57"/>
</g>
<defs>
<clipPath id="clip0_40_20">
<rect width="25" height="25" fill="white"/>
</clipPath>
</defs>
</svg>
