<svg width="25" height="25" viewBox="0 0 25 25" fill="none" xmlns="http://www.w3.org/2000/svg">
<path d="M0 0H25V25H0V0ZM22.9541 19.0381C22.7734 17.8955 22.0264 16.9385 19.8242 16.0449C19.0576 15.6885 18.2031 15.4346 17.9541 14.8584C17.8613 14.5166 17.8418 14.3311 17.9053 14.126C18.0664 13.4521 18.8574 13.252 19.4824 13.4375C19.8877 13.5645 20.2637 13.8721 20.498 14.375C21.5771 13.6719 21.5771 13.6719 22.3242 13.2031C22.0459 12.7686 21.9043 12.5781 21.7139 12.3926C21.0596 11.6553 20.1855 11.2793 18.7646 11.3135L18.0273 11.4063C17.3242 11.5771 16.6504 11.9531 16.2451 12.4512C15.0586 13.7939 15.4053 16.1377 16.8408 17.1094C18.2617 18.1738 20.3418 18.4033 20.6104 19.4043C20.8594 20.625 19.7021 21.0156 18.5596 20.874C17.7148 20.6885 17.251 20.2637 16.7334 19.4824L14.8291 20.5762C15.0439 21.0791 15.2979 21.2939 15.6738 21.7334C17.4854 23.5596 22.0166 23.4668 22.832 20.6885C22.8613 20.5957 23.0811 19.9512 22.9102 18.9697L22.9541 19.0381ZM13.5937 11.4893H11.2549C11.2549 13.5059 11.2402 15.5127 11.2402 17.5342C11.2402 18.8184 11.3037 19.9951 11.0986 20.3564C10.752 21.0742 9.86816 20.9814 9.46777 20.8594C9.05762 20.6543 8.84277 20.376 8.60352 19.9658C8.53516 19.8535 8.48633 19.7607 8.4668 19.7607L6.56738 20.9326C6.88477 21.5869 7.34863 22.1533 7.94922 22.5098C8.84277 23.042 10.0391 23.2129 11.2891 22.9346C12.1045 22.7002 12.8076 22.2119 13.1738 21.4648C13.7061 20.498 13.5937 19.3066 13.5889 17.9785C13.6035 15.8398 13.5889 13.6963 13.5889 11.543L13.5937 11.4893Z" fill="#5E5A57"/>
</svg>
