<svg width="45" height="45" viewBox="0 0 45 45" fill="none" xmlns="http://www.w3.org/2000/svg">
<circle cx="22.5" cy="22.5" r="22" stroke="#17130F" stroke-opacity="0.5"/>
<path d="M24.0332 20.9182L24.0337 20.9184C24.0767 20.9287 24.1206 20.9355 24.1646 20.9355C24.3562 20.9355 24.5318 20.831 24.6245 20.6631C24.6705 20.5815 25.7724 18.6638 28.3144 18.6638C29.7439 18.6638 30.8624 19.1148 31.6241 19.9538C32.3865 20.7934 32.7974 22.0281 32.7974 23.6065V31.799H29.6086V25.0975C29.6086 23.5371 29.1673 22.63 28.5843 22.1141C28.0025 21.5991 27.2887 21.482 26.7596 21.482C25.7851 21.482 25.002 21.8199 24.4633 22.4448C23.9254 23.0688 23.6361 23.9731 23.6361 25.0975V31.7998H20.6011V19.0845H23.6361V20.4123C23.6361 20.6515 23.7997 20.8595 24.0332 20.9182ZM28.5554 32.3245C28.5554 32.6147 28.7916 32.85 29.0816 32.85L33.3236 32.8508C33.6136 32.8508 33.8499 32.6155 33.8499 32.3253V23.6065C33.8499 21.7202 33.3125 20.1672 32.2883 19.1218C31.3187 18.1317 29.9429 17.6113 28.3144 17.6113C26.9945 17.6113 25.8289 18.0207 24.852 18.8287C24.852 18.8287 24.852 18.8287 24.852 18.8287L24.6879 18.9643V18.5575C24.6879 18.2674 24.4525 18.032 24.1624 18.032H20.0749C19.7848 18.032 19.5494 18.2674 19.5494 18.5575V32.3253C19.5494 32.6154 19.7848 32.8508 20.0749 32.8508H24.1616C24.4517 32.8508 24.6871 32.6154 24.6871 32.3253V25.0975C24.6871 24.2361 24.8645 23.5962 25.2086 23.1723C25.5512 22.7503 26.0656 22.5345 26.7589 22.5345C27.0118 22.5345 27.4566 22.5355 27.84 22.8498C28.222 23.163 28.5554 23.7984 28.5554 25.0975V32.3245Z" fill="#17130F" stroke="black" stroke-width="0.1"/>
<path d="M12.5586 32.3245C12.5586 32.6147 12.7949 32.85 13.0849 32.85H17.3486C17.6388 32.85 17.8741 32.6146 17.8741 32.3245V18.5575C17.8741 18.2674 17.6388 18.032 17.3486 18.032H13.0849C12.7949 18.032 12.5586 18.2673 12.5586 18.5575V32.3245ZM16.8224 19.0838V31.799H13.6111V19.0838H16.8224Z" fill="#17130F" stroke="black" stroke-width="0.1"/>
<path d="M12.15 14.215C12.15 15.9044 13.5168 17.2793 15.1977 17.2793C16.8764 17.2793 18.2425 15.9043 18.2425 14.2158C18.2425 12.5257 16.8764 11.15 15.1977 11.15C13.5168 11.15 12.15 12.5249 12.15 14.215ZM13.2025 14.215C13.2025 13.1029 14.0978 12.1995 15.1977 12.1995C16.2968 12.1995 17.1907 13.1036 17.1915 14.215C17.1914 15.3263 16.2969 16.2283 15.1977 16.2283C14.0977 16.2283 13.2025 15.3263 13.2025 14.215Z" fill="#17130F" stroke="black" stroke-width="0.1"/>
</svg>
