<svg width="25" height="25" viewBox="0 0 25 25" fill="none" xmlns="http://www.w3.org/2000/svg">
<g clip-path="url(#clip0_42_29)">
<path d="M18.5552 23.4396C18.4625 23.4886 18.4677 23.5084 18.5604 23.4615C18.5876 23.4498 18.6123 23.4332 18.6333 23.4125C18.6333 23.3959 18.6312 23.3979 18.5552 23.4396ZM18.7406 23.3417C18.6969 23.3761 18.6969 23.3782 18.75 23.3511C18.7792 23.3365 18.8042 23.3198 18.8042 23.3146C18.8042 23.2948 18.7917 23.3 18.7406 23.3417ZM18.8625 23.2677C18.8187 23.3021 18.8187 23.3042 18.8719 23.2771C18.901 23.2625 18.926 23.2459 18.926 23.2407C18.926 23.2209 18.9135 23.2261 18.8625 23.2677ZM18.9844 23.1948C18.9406 23.2292 18.9406 23.2313 18.9937 23.2042C19.0229 23.1896 19.0479 23.1729 19.0479 23.1677C19.0479 23.1479 19.0354 23.1532 18.9844 23.1948ZM19.1531 23.0854C19.0677 23.1396 19.0406 23.1761 19.1167 23.1344C19.1708 23.1032 19.2583 23.0365 19.2437 23.0344C19.2118 23.0481 19.1814 23.0652 19.1531 23.0854ZM11.6812 0.00628031C11.6271 0.0114886 11.4562 0.0281553 11.3021 0.0406553C7.75208 0.360447 4.42604 2.27607 2.31979 5.22086C1.15537 6.83716 0.398503 8.71075 0.113538 10.6823C0.0135376 11.3688 0.0010376 11.5719 0.0010376 12.5032C0.0010376 13.4344 0.0135376 13.6365 0.113538 14.324C0.792704 19.0177 4.13333 22.9615 8.66354 24.4229C9.475 24.6844 10.3302 24.8625 11.3021 24.9698C11.6812 25.0115 13.3177 25.0115 13.6969 24.9698C15.375 24.7844 16.7979 24.3688 18.2 23.6532C18.4146 23.5427 18.4562 23.5136 18.4271 23.4896C17.7422 22.5847 17.0637 21.6749 16.3917 20.7604L14.3927 18.0604L11.8885 14.3542C11.0559 13.114 10.2153 11.8793 9.36666 10.65C9.35729 10.6479 9.34687 12.2948 9.3427 14.3052C9.33541 17.8261 9.33333 17.9677 9.28854 18.0511C9.24602 18.1484 9.16984 18.2272 9.07395 18.2729C8.99583 18.3125 8.92708 18.3198 8.55833 18.3198H8.13541L8.02291 18.249C7.9535 18.2052 7.89704 18.1437 7.85937 18.0709L7.80833 17.9604L7.81354 13.0615L7.82083 8.16045L7.89687 8.06566C7.94796 8.00563 8.00934 7.95519 8.07812 7.9167C8.17812 7.86774 8.2177 7.86253 8.64062 7.86253C9.13958 7.86253 9.22187 7.88232 9.35208 8.02399C10.3658 9.53258 11.371 11.0468 12.3677 12.5667C13.9906 15.0271 16.2083 18.3865 17.299 20.0365L19.2781 23.0344L19.3781 22.9688C20.3305 22.3353 21.194 21.5776 21.9458 20.7157C23.5208 18.9132 24.5422 16.6946 24.8875 14.3261C24.9875 13.6396 25 13.4365 25 12.5052C25 11.574 24.9875 11.3719 24.8875 10.6844C24.2083 5.99065 20.8677 2.04691 16.3375 0.585447C15.4909 0.315913 14.619 0.133373 13.7354 0.0406553C13.501 0.016697 11.8854 -0.0103864 11.6833 0.00940531L11.6812 0.00628031ZM16.7979 7.5667C16.8562 7.59597 16.908 7.63657 16.9504 7.68611C16.9928 7.73566 17.0249 7.79315 17.0448 7.85524C17.0646 7.91878 17.0687 9.27711 17.0646 12.3386L17.0573 16.7323L16.2823 15.5448L15.5052 14.3573V11.1636C15.5052 9.09899 15.5146 7.93857 15.5292 7.88232C15.5468 7.8174 15.5773 7.75668 15.6188 7.70372C15.6603 7.65077 15.712 7.60666 15.7708 7.57399C15.8708 7.52295 15.9073 7.51774 16.2917 7.51774C16.6531 7.51774 16.7167 7.52295 16.7979 7.5667Z" fill="#5E5A57"/>
</g>
<defs>
<clipPath id="clip0_42_29">
<rect width="25" height="25" fill="white"/>
</clipPath>
</defs>
</svg>
