<svg width="25" height="25" viewBox="0 0 25 25" fill="none" xmlns="http://www.w3.org/2000/svg">
<path d="M12.5 10.2685C11.2695 10.2685 10.2686 11.2695 10.2686 12.5C10.2686 13.7304 11.2695 14.7314 12.5 14.7314C13.7305 14.7314 14.7314 13.7304 14.7314 12.5C14.7314 11.2695 13.7305 10.2685 12.5 10.2685ZM6.25977 16.9336L5.7666 16.8115C2.10449 15.8838 0 14.3115 0 12.4951C0 10.6787 2.10449 9.1113 5.7666 8.18357L6.25977 8.0615L6.39648 8.54978C6.76758 9.82907 7.24121 11.0742 7.81738 12.2754L7.9248 12.4951L7.81738 12.7197C7.24609 13.9209 6.76758 15.166 6.39648 16.4453L6.25977 16.9336ZM5.53711 9.32126C2.75391 10.1025 1.04492 11.3037 1.04492 12.4951C1.04492 13.6865 2.75391 14.8828 5.53711 15.6689C5.87891 14.5801 6.28906 13.5254 6.77246 12.4951C6.28906 11.4648 5.87891 10.4101 5.53711 9.32126ZM18.7402 16.9336L18.6035 16.4453C18.2324 15.166 17.7588 13.9209 17.1826 12.7197L17.0752 12.4951L17.1826 12.2705C17.7539 11.0693 18.2324 9.82419 18.6035 8.54489L18.7402 8.0615L19.2334 8.18357C22.8955 9.1113 25 10.6836 25 12.4951C25 14.3115 22.8955 15.8789 19.2334 16.8066L18.7402 16.9336ZM18.2275 12.4951C18.7305 13.5791 19.1455 14.6386 19.4629 15.6689C22.251 14.8828 23.9551 13.6865 23.9551 12.4951C23.9551 11.3037 22.2461 10.1074 19.4629 9.32126C19.1211 10.4052 18.7061 11.4648 18.2275 12.4951ZM5.53223 9.31638L5.39551 8.8281C4.36035 5.20017 4.67285 2.59763 6.25 1.68943C7.79785 0.795871 10.2734 1.85056 12.876 4.52146L13.2324 4.88278L12.876 5.24411C11.9531 6.20603 11.1084 7.2363 10.3516 8.33493L10.21 8.53513L9.96582 8.55466C8.63281 8.66208 7.31445 8.87204 6.02051 9.18943L5.53223 9.31638ZM7.50488 2.41208C7.22656 2.41208 6.97754 2.47068 6.76758 2.59275C5.73242 3.19333 5.55176 5.26853 6.26465 8.06638C7.37793 7.81736 8.49609 7.64157 9.63379 7.53903C10.2832 6.6113 11.001 5.72263 11.7676 4.88767C10.1465 3.31052 8.6084 2.41208 7.50488 2.41208ZM17.4951 23.623C16.0107 23.623 14.1016 22.5097 12.124 20.4736L11.7676 20.1123L12.124 19.7509C13.0469 18.789 13.8916 17.7588 14.6484 16.6601L14.7852 16.4599L15.0293 16.4355C16.3574 16.333 17.6807 16.123 18.9746 15.8008L19.4678 15.6787L19.6045 16.167C20.6348 19.7949 20.3223 22.3974 18.7451 23.3056C18.3691 23.5205 17.9346 23.6279 17.4951 23.623ZM13.2275 20.1025C14.8486 21.6845 16.3916 22.583 17.4902 22.583H17.4951C17.7734 22.583 18.0225 22.5195 18.2275 22.4023C19.2627 21.8017 19.4482 19.7265 18.7305 16.9287C17.6172 17.1777 16.4941 17.3535 15.3613 17.4511C14.7119 18.3789 13.999 19.2627 13.2275 20.1025ZM19.4727 9.31638L18.9795 9.18943C17.6807 8.87204 16.3623 8.66208 15.0342 8.55466L14.79 8.53513L14.6533 8.33493C13.8965 7.2363 13.0518 6.20114 12.1289 5.24411L11.7725 4.88278L12.1289 4.52146C14.7314 1.85056 17.207 0.795871 18.7549 1.68943C20.332 2.59763 20.6445 5.20017 19.6143 8.83298L19.4727 9.31638ZM15.3662 7.53903C16.5527 7.65134 17.6855 7.82224 18.7354 8.06638C19.4531 5.26853 19.2627 3.19333 18.2324 2.59275C17.2021 1.99704 15.2637 2.91013 13.2324 4.89255C13.999 5.73239 14.7119 6.6113 15.3662 7.53903ZM7.50488 23.623C7.06543 23.6328 6.63086 23.5205 6.25 23.3008C4.67285 22.3926 4.36035 19.7949 5.39063 16.1621L5.52734 15.6738L6.02051 15.7959C7.22656 16.1035 8.5498 16.3134 9.96582 16.4306L10.21 16.4551L10.3467 16.6552C11.1035 17.7539 11.9482 18.789 12.8711 19.7461L13.2227 20.1074L12.8711 20.4687C10.8984 22.5049 8.98926 23.623 7.50488 23.623ZM6.26465 16.9287C5.54688 19.7265 5.7373 21.8017 6.76758 22.4023C7.79785 22.9883 9.73145 22.0849 11.7676 20.1025C11.001 19.2627 10.2832 18.3789 9.63379 17.4511C8.50098 17.3486 7.37793 17.1777 6.26465 16.9287ZM12.5 17.583C11.6406 17.583 10.7617 17.5439 9.87793 17.4707L9.63379 17.4511L9.49219 17.2461C8.99414 16.5283 8.52539 15.7959 8.08594 15.039C7.64648 14.2822 7.24121 13.5107 6.87012 12.7197L6.7627 12.4951L6.87012 12.2705C7.24609 11.4795 7.64648 10.708 8.08594 9.95114C8.51563 9.20407 8.98926 8.46189 9.49219 7.73923L9.63379 7.53415L9.87793 7.51462C11.6211 7.36814 13.3789 7.36814 15.1172 7.51462L15.3613 7.53415L15.5029 7.73923C16.499 9.16989 17.3779 10.6884 18.125 12.2705L18.2324 12.4951L18.125 12.7197C17.3779 14.2968 16.5039 15.8154 15.5029 17.2509L15.3613 17.456L15.1172 17.4756C14.2432 17.5439 13.3594 17.583 12.5 17.583ZM10.2148 16.4502C11.7529 16.5674 13.252 16.5674 14.79 16.4502C15.6494 15.1953 16.4111 13.872 17.0752 12.4951C16.416 11.1181 15.6494 9.79978 14.7852 8.54001C13.2617 8.42282 11.7334 8.42282 10.21 8.54001C9.34082 9.79978 8.5791 11.1181 7.91992 12.4951C8.58398 13.872 9.35059 15.1953 10.2148 16.4502Z" fill="#5E5A57"/>
</svg>
