<svg width="25" height="25" viewBox="0 0 25 25" fill="none" xmlns="http://www.w3.org/2000/svg">
<g clip-path="url(#clip0_40_18)">
<path fill-rule="evenodd" clip-rule="evenodd" d="M12.2596 4.80774C8.86175 4.80774 6.7392 6.51671 5.88942 9.93594C7.16346 8.22697 8.65026 7.58595 10.3486 8.01287C11.3181 8.25664 12.0112 8.96473 12.7769 9.74763C14.0267 11.0232 15.4727 12.5 18.6298 12.5C22.0277 12.5 24.1502 10.7911 25 7.37184C23.726 9.08081 22.2404 9.72184 20.5409 9.29492C19.5713 9.05115 18.8782 8.34305 18.1113 7.56015C16.8627 6.28326 15.418 4.80774 12.2596 4.80774ZM5.88942 12.5C2.49156 12.5 0.36901 14.209 -0.480774 17.6283C0.793265 15.918 2.28007 15.2783 3.97836 15.7052C4.9479 15.9489 5.64098 16.657 6.40795 17.4399C7.65651 18.7155 9.10254 20.1924 12.2609 20.1924C15.6587 20.1924 17.7813 18.4834 18.6311 15.0641C17.357 16.7731 15.8702 17.4141 14.1719 16.9872C13.2024 16.7435 12.5093 16.0354 11.7436 15.2525C10.4925 13.9769 9.04649 12.5 5.88942 12.5Z" fill="#5E5A57"/>
</g>
<defs>
<clipPath id="clip0_40_18">
<rect width="25" height="25" fill="white"/>
</clipPath>
</defs>
</svg>
