<svg width="25" height="25" viewBox="0 0 25 25" fill="none" xmlns="http://www.w3.org/2000/svg">
<g clip-path="url(#clip0_40_13)">
<path d="M0 12.5V25H25V0H0V12.5ZM20.1465 11.5039C20.7813 11.6602 21.2646 11.9482 21.7139 12.4072C21.9434 12.6514 22.2852 13.1006 22.3145 13.208C22.3242 13.2422 21.2354 13.9697 20.5762 14.375C20.5518 14.3896 20.4541 14.292 20.3467 14.1309C20.0244 13.6621 19.6875 13.4619 19.1699 13.4229C18.4131 13.374 17.9248 13.7695 17.9297 14.4336C17.9248 14.5947 17.9639 14.7607 18.0371 14.9023C18.2031 15.249 18.5156 15.4541 19.4873 15.874C21.2793 16.6406 22.041 17.1533 22.5195 17.8711C23.0518 18.6768 23.1689 19.9609 22.8125 20.9229C22.4121 21.9629 21.4307 22.6709 20.0439 22.9004C19.6143 22.9785 18.5986 22.9639 18.1396 22.8809C17.1338 22.7002 16.1816 22.207 15.5957 21.5527C15.3613 21.2988 14.917 20.6348 14.9463 20.5908C14.9609 20.5762 15.0586 20.5078 15.1758 20.4443C15.293 20.3809 15.708 20.1367 16.1035 19.9072L16.8262 19.4873L16.9775 19.7119C17.1875 20.0342 17.6514 20.4736 17.9248 20.6201C18.7207 21.0449 19.8193 20.9814 20.3564 20.498C20.5762 20.3174 20.6982 20.0342 20.6836 19.751C20.6836 19.4629 20.6445 19.3311 20.498 19.1162C20.3027 18.8379 19.9072 18.6035 18.7793 18.1152C17.4902 17.5586 16.9336 17.2168 16.4258 16.665C16.1084 16.3037 15.874 15.874 15.7373 15.415C15.6445 15.0586 15.6201 14.1748 15.6934 13.8184C15.957 12.5684 16.9043 11.7041 18.2568 11.4453C18.6914 11.3623 19.7168 11.3965 20.1465 11.5039ZM14.2773 12.5488L14.2871 13.5693H11.0303V22.8174H8.72559V13.5693H5.47363V12.5684C5.47363 12.0117 5.48828 11.5479 5.50293 11.5332C5.51758 11.5186 7.49512 11.5088 9.89258 11.5137L14.2627 11.5283L14.2773 12.5488Z" fill="#5E5A57"/>
</g>
<defs>
<clipPath id="clip0_40_13">
<rect width="25" height="25" fill="white"/>
</clipPath>
</defs>
</svg>
